<svg id="Logo_ERRA" xmlns="http://www.w3.org/2000/svg" viewBox="0 0 497.21 92.12"><defs><style>.cls-1{fill:#fff;}</style></defs><g id="ERRA"><g id="A"><polygon class="cls-1" points="289.56 0 262.1 0 206.85 92.12 231.74 92.12 271.07 26.57 274.44 56.79 262.43 56.79 252.53 73.31 276.27 73.31 278.38 92.12 302.37 92.12 289.56 0"/></g><g id="R"><path class="cls-1" d="M-376.33,175.43l-20.26,33.77h-23.74l0-.11,38.67-64.5-3.3,14.25h11.69a34.43,34.43,0,0,0,7.27-.7,18.61,18.61,0,0,0,7.38-3.15,12.62,12.62,0,0,0,5.2-10.71,11.09,11.09,0,0,0-1.12-5.23,7.17,7.17,0,0,0-2.44-2.63c-2.38-1.54-5.87-2.31-10.5-2.31h-7.89l10.21-17h2q11.94,0,20.05,2.87a30.56,30.56,0,0,1,6.06,2.85q9.24,5.73,9.23,17.47,0,11.08-6.75,18.63t-18.32,11.38l21.29,38.91h-26.51Z" transform="translate(561.44 -117.09)"/></g><g id="R-2" data-name="R"><path class="cls-1" d="M-442.14,175.43-462.4,209.2h-23.74l0-.11,38.67-64.5-3.3,14.25H-439a34.43,34.43,0,0,0,7.27-.7A18.61,18.61,0,0,0-424.4,155a12.62,12.62,0,0,0,5.2-10.71,11.09,11.09,0,0,0-1.12-5.23,7.17,7.17,0,0,0-2.44-2.63c-2.38-1.54-5.87-2.31-10.5-2.31h-7.89l10.21-17h2q11.94,0,20.05,2.87a30.56,30.56,0,0,1,6.06,2.85q9.24,5.73,9.23,17.47,0,11.08-6.75,18.63t-18.32,11.38l21.29,38.91h-26.51Z" transform="translate(561.44 -117.09)"/></g><g id="E"><polygon class="cls-1" points="68.47 17.5 58.64 33.9 100.74 33.9 90.25 51.41 48.14 51.41 40.58 64.01 34.23 74.61 90.02 74.61 86.06 92.12 0 92.12 0.03 92 16.86 63.94 38.69 27.52 44.7 17.5 55.2 0 121.06 0 110.57 17.5 68.47 17.5"/></g></g><g id="ElectricRoadRacingAssociation"><path class="cls-1" d="M-223,141.89h-13.33V123.47H-223V127h-8.6v3.18h8v3.56h-8v4.56h8.6Z" transform="translate(561.44 -117.09)"/><path class="cls-1" d="M-214.85,141.89h-4.47V122.64h4.47Z" transform="translate(561.44 -117.09)"/><path class="cls-1" d="M-197,135.77h-10.2a3.18,3.18,0,0,0,1.25,2.49,5.49,5.49,0,0,0,3.37.87,7.51,7.51,0,0,0,2.73-.51,8.56,8.56,0,0,0,2.09-1.09h.5v3.58a17,17,0,0,1-2.85.88,15,15,0,0,1-3,.27,9.68,9.68,0,0,1-6.4-1.88,6.61,6.61,0,0,1-2.23-5.36,7.16,7.16,0,0,1,2.11-5.45,8,8,0,0,1,5.78-2,6.88,6.88,0,0,1,5.1,1.72,6.67,6.67,0,0,1,1.71,4.93Zm-4.43-2.62a3.13,3.13,0,0,0-.7-2.1,2.64,2.64,0,0,0-2-.7,3.28,3.28,0,0,0-2.11.66,2.85,2.85,0,0,0-.93,2.14Z" transform="translate(561.44 -117.09)"/><path class="cls-1" d="M-186.59,142.26a11.87,11.87,0,0,1-3.32-.43,7.31,7.31,0,0,1-2.62-1.34,5.92,5.92,0,0,1-1.71-2.28,7.92,7.92,0,0,1-.61-3.21,8,8,0,0,1,.65-3.35,6.31,6.31,0,0,1,1.82-2.34,7.21,7.21,0,0,1,2.6-1.29,11.45,11.45,0,0,1,3.05-.41,10.76,10.76,0,0,1,2.62.31,12.61,12.61,0,0,1,2.24.81v3.79h-.63l-.62-.52a5.86,5.86,0,0,0-.9-.58,5.85,5.85,0,0,0-1.11-.45,4.93,4.93,0,0,0-1.41-.18,3.38,3.38,0,0,0-2.73,1.13,4.62,4.62,0,0,0-1,3.08,4.29,4.29,0,0,0,1,3,3.68,3.68,0,0,0,2.79,1,5.43,5.43,0,0,0,1.51-.19,5.21,5.21,0,0,0,1.12-.45,5.63,5.63,0,0,0,.74-.52l.59-.53h.63v3.79a11.91,11.91,0,0,1-2.19.79A10.53,10.53,0,0,1-186.59,142.26Z" transform="translate(561.44 -117.09)"/><path class="cls-1" d="M-170,141.77a13.65,13.65,0,0,1-1.52.29,15.69,15.69,0,0,1-2,.1,6,6,0,0,1-3.87-1,4.46,4.46,0,0,1-1.26-3.6V131h-1.83v-3h1.83v-4h4.46v4H-170v3h-4.16V136c0,.48,0,.91,0,1.27a2.52,2.52,0,0,0,.19,1,1.41,1.41,0,0,0,.61.69,2.62,2.62,0,0,0,1.28.25,3.76,3.76,0,0,0,.91-.15,3.51,3.51,0,0,0,.78-.27h.37Z" transform="translate(561.44 -117.09)"/><path class="cls-1" d="M-157.31,132.24h-.39a3.68,3.68,0,0,0-.92-.15c-.42,0-.77-.05-1-.05a10.51,10.51,0,0,0-1.68.12,10.29,10.29,0,0,0-1.56.43v9.3h-4.47V128h4.47v2a9.24,9.24,0,0,1,2.55-1.68,5.58,5.58,0,0,1,2-.41h.53l.52,0Z" transform="translate(561.44 -117.09)"/><path class="cls-1" d="M-150.19,126h-4.72v-3.38h4.72Zm-.13,15.87h-4.46V128h4.46Z" transform="translate(561.44 -117.09)"/><path class="cls-1" d="M-138.89,142.26a11.92,11.92,0,0,1-3.32-.43,7.47,7.47,0,0,1-2.62-1.34,6,6,0,0,1-1.7-2.28,7.76,7.76,0,0,1-.61-3.21,8,8,0,0,1,.65-3.35,6.28,6.28,0,0,1,1.81-2.34,7.29,7.29,0,0,1,2.6-1.29,11.47,11.47,0,0,1,3.06-.41,10.76,10.76,0,0,1,2.62.31,12.61,12.61,0,0,1,2.24.81v3.79h-.63l-.62-.52a7,7,0,0,0-.9-.58,6.13,6.13,0,0,0-1.11-.45,5,5,0,0,0-1.41-.18,3.4,3.4,0,0,0-2.74,1.13,4.61,4.61,0,0,0-1,3.08,4.24,4.24,0,0,0,1,3,3.64,3.64,0,0,0,2.78,1,5.5,5.5,0,0,0,1.52-.19,4.9,4.9,0,0,0,1.11-.45,6.55,6.55,0,0,0,.75-.52l.59-.53h.63v3.79a11.75,11.75,0,0,1-2.2.79A10.41,10.41,0,0,1-138.89,142.26Z" transform="translate(561.44 -117.09)"/><path class="cls-1" d="M-218.64,172.3h-5.8l-5-6.76h-2.2v6.76h-4.73V153.87h8a18.8,18.8,0,0,1,2.81.19,6,6,0,0,1,2.2.8,4.8,4.8,0,0,1,1.65,1.61,4.53,4.53,0,0,1,.61,2.46,5.49,5.49,0,0,1-.94,3.33,7.08,7.08,0,0,1-2.71,2.14ZM-226,159.52a2.33,2.33,0,0,0-.28-1.19,1.93,1.93,0,0,0-1-.78,3.7,3.7,0,0,0-1.13-.24c-.42,0-.92-.05-1.49-.05h-1.72v5h1.46a12.7,12.7,0,0,0,1.9-.11,2.75,2.75,0,0,0,1.29-.5,2.46,2.46,0,0,0,.72-.85A2.75,2.75,0,0,0-226,159.52Z" transform="translate(561.44 -117.09)"/><path class="cls-1" d="M-202.6,165.35a7.28,7.28,0,0,1-2,5.41,7.66,7.66,0,0,1-5.61,2,7.66,7.66,0,0,1-5.61-2,7.28,7.28,0,0,1-2-5.41,7.21,7.21,0,0,1,2-5.41,7.64,7.64,0,0,1,5.6-2,7.61,7.61,0,0,1,5.62,2A7.26,7.26,0,0,1-202.6,165.35Zm-5.48,3.38a3.6,3.6,0,0,0,.65-1.28,8,8,0,0,0,.21-2.07,7.93,7.93,0,0,0-.22-2,3.5,3.5,0,0,0-.62-1.33,2.14,2.14,0,0,0-.95-.72,3.36,3.36,0,0,0-1.2-.21,3.43,3.43,0,0,0-1.15.18,2.2,2.2,0,0,0-.95.69,3.39,3.39,0,0,0-.65,1.32,7.88,7.88,0,0,0-.24,2.12,7.62,7.62,0,0,0,.21,2,3.27,3.27,0,0,0,.61,1.34,2.34,2.34,0,0,0,.95.71,3.33,3.33,0,0,0,1.26.22,3.16,3.16,0,0,0,1.15-.2A2.2,2.2,0,0,0-208.08,168.73Z" transform="translate(561.44 -117.09)"/><path class="cls-1" d="M-191,170.82l-.89.66a7.08,7.08,0,0,1-1,.61,6.52,6.52,0,0,1-1.36.43,7.48,7.48,0,0,1-1.55.15,4.7,4.7,0,0,1-3.31-1.23,4.05,4.05,0,0,1-1.34-3.13,4.28,4.28,0,0,1,.68-2.49,4.58,4.58,0,0,1,1.93-1.52,11.14,11.14,0,0,1,3.07-.79c1.22-.16,2.49-.27,3.8-.35v-.07a1.61,1.61,0,0,0-.94-1.59,6.85,6.85,0,0,0-2.77-.44,7.86,7.86,0,0,0-2.35.39q-1.26.39-1.8.6h-.41V158.7c.47-.13,1.24-.27,2.3-.44a20,20,0,0,1,3.18-.25q3.81,0,5.49,1.16a4.15,4.15,0,0,1,1.69,3.67v9.46H-191Zm0-2.16v-2.89q-.9.07-1.95.21a9.38,9.38,0,0,0-1.6.3,2.23,2.23,0,0,0-1,.61,1.57,1.57,0,0,0-.35,1.06,2.75,2.75,0,0,0,.07.7,1.15,1.15,0,0,0,.37.52,1.93,1.93,0,0,0,.68.36,4.69,4.69,0,0,0,1.24.12,3.7,3.7,0,0,0,1.36-.27A4.12,4.12,0,0,0-191,168.66Z" transform="translate(561.44 -117.09)"/><path class="cls-1" d="M-169,172.3h-4.47v-1.45a9.36,9.36,0,0,1-2.15,1.38,5.6,5.6,0,0,1-2.31.45,4.85,4.85,0,0,1-4-2,8.32,8.32,0,0,1-1.52-5.27,8.89,8.89,0,0,1,.51-3.13,7.23,7.23,0,0,1,1.4-2.35,5.73,5.73,0,0,1,2-1.44,6.09,6.09,0,0,1,2.4-.51,6.79,6.79,0,0,1,2,.26,14.67,14.67,0,0,1,1.64.68V153H-169Zm-4.47-3.83v-6.83a4.52,4.52,0,0,0-1-.28,5.52,5.52,0,0,0-.95-.09,3.18,3.18,0,0,0-2.63,1.1,4.76,4.76,0,0,0-.87,3,5,5,0,0,0,.7,3,2.67,2.67,0,0,0,2.26.92,3.81,3.81,0,0,0,1.28-.23A4.49,4.49,0,0,0-173.44,168.47Z" transform="translate(561.44 -117.09)"/><path class="cls-1" d="M-138.12,172.3h-5.8l-5-6.76h-2.2v6.76h-4.73V153.87h8a18.8,18.8,0,0,1,2.81.19,6.08,6.08,0,0,1,2.2.8,4.8,4.8,0,0,1,1.65,1.61,4.53,4.53,0,0,1,.61,2.46,5.49,5.49,0,0,1-.94,3.33,7.16,7.16,0,0,1-2.71,2.14Zm-7.41-12.78a2.33,2.33,0,0,0-.28-1.19,1.93,1.93,0,0,0-1-.78,3.7,3.7,0,0,0-1.13-.24c-.43,0-.92-.05-1.49-.05h-1.72v5h1.46a12.7,12.7,0,0,0,1.9-.11,2.75,2.75,0,0,0,1.29-.5,2.46,2.46,0,0,0,.72-.85A2.89,2.89,0,0,0-145.53,159.52Z" transform="translate(561.44 -117.09)"/><path class="cls-1" d="M-127.87,170.82l-.89.66a7.14,7.14,0,0,1-1,.61,6.33,6.33,0,0,1-1.36.43,7.38,7.38,0,0,1-1.54.15,4.72,4.72,0,0,1-3.32-1.23,4.05,4.05,0,0,1-1.34-3.13,4.28,4.28,0,0,1,.68-2.49,4.64,4.64,0,0,1,1.93-1.52,11.14,11.14,0,0,1,3.07-.79c1.22-.16,2.49-.27,3.8-.35v-.07a1.59,1.59,0,0,0-.94-1.59,6.85,6.85,0,0,0-2.77-.44,7.91,7.91,0,0,0-2.35.39q-1.25.39-1.8.6h-.4V158.7c.47-.13,1.23-.27,2.29-.44a20.08,20.08,0,0,1,3.19-.25q3.8,0,5.48,1.16a4.15,4.15,0,0,1,1.69,3.67v9.46h-4.41Zm0-2.16v-2.89c-.61,0-1.26.12-2,.21a9.23,9.23,0,0,0-1.59.3,2.13,2.13,0,0,0-1,.61,1.53,1.53,0,0,0-.36,1.06,2.7,2.7,0,0,0,.08.7,1.08,1.08,0,0,0,.37.52,1.84,1.84,0,0,0,.68.36,4.56,4.56,0,0,0,1.23.12,3.7,3.7,0,0,0,1.36-.27A4.18,4.18,0,0,0-127.87,168.66Z" transform="translate(561.44 -117.09)"/><path class="cls-1" d="M-112.12,172.67a11.86,11.86,0,0,1-3.32-.44,7.29,7.29,0,0,1-2.62-1.33,5.92,5.92,0,0,1-1.71-2.28,8,8,0,0,1-.61-3.22,8,8,0,0,1,.65-3.35,6.39,6.39,0,0,1,1.82-2.34,7.39,7.39,0,0,1,2.59-1.28,11.13,11.13,0,0,1,3.06-.41,10.29,10.29,0,0,1,2.62.31,11.85,11.85,0,0,1,2.24.8v3.8H-108l-.62-.52a5.2,5.2,0,0,0-.9-.58,5.85,5.85,0,0,0-1.11-.45,4.93,4.93,0,0,0-1.41-.18,3.35,3.35,0,0,0-2.73,1.13,4.59,4.59,0,0,0-1,3.07,4.32,4.32,0,0,0,1,3,3.68,3.68,0,0,0,2.79,1,5.83,5.83,0,0,0,1.51-.19,4.73,4.73,0,0,0,1.12-.46,4.22,4.22,0,0,0,.74-.52c.21-.18.41-.35.59-.53h.63v3.8a12.69,12.69,0,0,1-2.19.79A10.53,10.53,0,0,1-112.12,172.67Z" transform="translate(561.44 -117.09)"/><path class="cls-1" d="M-99.86,156.42h-4.72V153h4.72ZM-100,172.3h-4.46V158.4H-100Z" transform="translate(561.44 -117.09)"/><path class="cls-1" d="M-81.84,172.3H-86.3v-6.9a15.43,15.43,0,0,0-.09-1.67,3.53,3.53,0,0,0-.3-1.23,1.42,1.42,0,0,0-.72-.67,3.39,3.39,0,0,0-1.33-.21,3.77,3.77,0,0,0-1.23.2,6.46,6.46,0,0,0-1.36.63v9.85h-4.46V158.4h4.46v1.54A11.3,11.3,0,0,1-89,158.51a5.83,5.83,0,0,1,2.43-.49,4.65,4.65,0,0,1,3.52,1.31,5.45,5.45,0,0,1,1.26,3.92Z" transform="translate(561.44 -117.09)"/><path class="cls-1" d="M-64.23,170.7a8.59,8.59,0,0,1-.56,3.29,4.87,4.87,0,0,1-1.56,2.09,6.42,6.42,0,0,1-2.42,1.11,13.51,13.51,0,0,1-3.19.34,24.54,24.54,0,0,1-2.86-.17q-1.4-.18-2.43-.42v-3.48h.55a14.3,14.3,0,0,0,2,.59,10,10,0,0,0,2.1.26,6.91,6.91,0,0,0,2-.23,2.61,2.61,0,0,0,1.18-.65,2.31,2.31,0,0,0,.56-1,5.82,5.82,0,0,0,.17-1.49v-.26a6.35,6.35,0,0,1-1.78,1,5.78,5.78,0,0,1-2.17.39,5.74,5.74,0,0,1-4.5-1.76A7.8,7.8,0,0,1-78.73,165a8.26,8.26,0,0,1,.48-3,6.43,6.43,0,0,1,1.36-2.18,5.48,5.48,0,0,1,2-1.35,6.47,6.47,0,0,1,2.44-.48,7.59,7.59,0,0,1,2,.26,6.91,6.91,0,0,1,1.68.74l.16-.62h4.33Zm-4.47-2.78v-6.3a4.48,4.48,0,0,0-.94-.26,6.27,6.27,0,0,0-1-.09,3.33,3.33,0,0,0-2.63,1,4.17,4.17,0,0,0-.87,2.82,4.11,4.11,0,0,0,.74,2.79,2.91,2.91,0,0,0,2.22.79,4.22,4.22,0,0,0,1.31-.21A4.84,4.84,0,0,0-68.7,167.92Z" transform="translate(561.44 -117.09)"/><path class="cls-1" d="M-219.35,202.7h-4.91l-1.28-3.72h-6.82l-1.28,3.72h-4.79l6.8-18.42h5.47Zm-7.34-7.1-2.26-6.6-2.27,6.6Z" transform="translate(561.44 -117.09)"/><path class="cls-1" d="M-204.88,198.3a4,4,0,0,1-1.93,3.47,9.25,9.25,0,0,1-5.28,1.32,15.17,15.17,0,0,1-3.37-.35,12.85,12.85,0,0,1-2.42-.77v-3.66h.41c.22.16.48.33.77.51a7.22,7.22,0,0,0,1.24.6,10,10,0,0,0,1.57.49,8.14,8.14,0,0,0,1.88.21,4.78,4.78,0,0,0,1.95-.3.92.92,0,0,0,.63-.85.82.82,0,0,0-.37-.74,5,5,0,0,0-1.41-.44q-.49-.1-1.35-.24a14.34,14.34,0,0,1-1.54-.32,5.42,5.42,0,0,1-2.8-1.54,3.74,3.74,0,0,1-.92-2.6,4,4,0,0,1,1.9-3.34,9,9,0,0,1,5.19-1.33,13.91,13.91,0,0,1,3,.32,12.16,12.16,0,0,1,2.23.67v3.52h-.38a8.81,8.81,0,0,0-2.26-1.11,8.15,8.15,0,0,0-2.57-.43,4.79,4.79,0,0,0-1.81.3c-.49.2-.74.48-.74.84a.9.9,0,0,0,.34.76,4.69,4.69,0,0,0,1.57.52c.45.09.94.18,1.46.26s1.05.2,1.58.33a5,5,0,0,1,2.6,1.44A3.67,3.67,0,0,1-204.88,198.3Z" transform="translate(561.44 -117.09)"/><path class="cls-1" d="M-189.85,198.3a4,4,0,0,1-1.93,3.47,9.21,9.21,0,0,1-5.28,1.32,15,15,0,0,1-3.36-.35,12.74,12.74,0,0,1-2.43-.77v-3.66h.41c.22.16.48.33.77.51a7,7,0,0,0,1.25.6,9.39,9.39,0,0,0,1.57.49,8,8,0,0,0,1.88.21,4.75,4.75,0,0,0,1.94-.3.92.92,0,0,0,.63-.85.8.8,0,0,0-.37-.74,5,5,0,0,0-1.41-.44c-.33-.07-.78-.15-1.34-.24a13.38,13.38,0,0,1-1.54-.32,5.41,5.41,0,0,1-2.81-1.54,3.79,3.79,0,0,1-.92-2.6,4,4,0,0,1,1.9-3.34,9,9,0,0,1,5.19-1.33,13.84,13.84,0,0,1,3,.32,11.92,11.92,0,0,1,2.23.67v3.52h-.38a8.65,8.65,0,0,0-2.26-1.11,8.1,8.1,0,0,0-2.57-.43,4.83,4.83,0,0,0-1.81.3c-.49.2-.74.48-.74.84a.93.93,0,0,0,.34.76,4.78,4.78,0,0,0,1.57.52c.45.09.94.18,1.47.26s1.05.2,1.57.33a5,5,0,0,1,2.6,1.44A3.67,3.67,0,0,1-189.85,198.3Z" transform="translate(561.44 -117.09)"/><path class="cls-1" d="M-172.69,195.76a7.23,7.23,0,0,1-2,5.4,7.65,7.65,0,0,1-5.62,2,7.65,7.65,0,0,1-5.61-2,7.23,7.23,0,0,1-2-5.4,7.24,7.24,0,0,1,2-5.42,7.65,7.65,0,0,1,5.59-2,7.64,7.64,0,0,1,5.63,2A7.32,7.32,0,0,1-172.69,195.76Zm-5.48,3.38a3.52,3.52,0,0,0,.65-1.28,7.54,7.54,0,0,0,.22-2.07,8.48,8.48,0,0,0-.22-2.06,3.69,3.69,0,0,0-.62-1.32,2.17,2.17,0,0,0-1-.72,3.36,3.36,0,0,0-1.2-.21,3.64,3.64,0,0,0-1.14.17,2.4,2.4,0,0,0-1,.7,3.54,3.54,0,0,0-.65,1.32,7.88,7.88,0,0,0-.24,2.12,8.2,8.2,0,0,0,.21,2,3.48,3.48,0,0,0,.62,1.34,2.36,2.36,0,0,0,1,.71,3.44,3.44,0,0,0,1.25.22,3.22,3.22,0,0,0,1.16-.21A2,2,0,0,0-178.17,199.14Z" transform="translate(561.44 -117.09)"/><path class="cls-1" d="M-162.26,203.07a11.92,11.92,0,0,1-3.32-.43,7.18,7.18,0,0,1-2.61-1.34A6,6,0,0,1-169.9,199a7.84,7.84,0,0,1-.61-3.22,8,8,0,0,1,.65-3.35,6.36,6.36,0,0,1,1.81-2.34,7.29,7.29,0,0,1,2.6-1.29,11.47,11.47,0,0,1,3.06-.41,10.76,10.76,0,0,1,2.62.31,12.61,12.61,0,0,1,2.24.81v3.8h-.63c-.17-.15-.38-.33-.62-.52a6.1,6.1,0,0,0-.9-.59,6.13,6.13,0,0,0-1.11-.45,4.93,4.93,0,0,0-1.41-.18,3.38,3.38,0,0,0-2.74,1.14,4.64,4.64,0,0,0-.95,3.07,4.23,4.23,0,0,0,1,3,3.61,3.61,0,0,0,2.78,1,5.5,5.5,0,0,0,1.52-.19,5.21,5.21,0,0,0,1.12-.45,6.39,6.39,0,0,0,.74-.52l.59-.53h.63V202a11.72,11.72,0,0,1-2.2.78A9.94,9.94,0,0,1-162.26,203.07Z" transform="translate(561.44 -117.09)"/><path class="cls-1" d="M-150,186.83h-4.71v-3.38H-150Zm-.12,15.87h-4.47V188.81h4.47Z" transform="translate(561.44 -117.09)"/><path class="cls-1" d="M-137.51,201.23l-.89.66a7,7,0,0,1-1,.6,5.84,5.84,0,0,1-1.36.44,8.16,8.16,0,0,1-1.54.14,4.76,4.76,0,0,1-3.32-1.22,4.06,4.06,0,0,1-1.33-3.13,4.17,4.17,0,0,1,.68-2.49,4.51,4.51,0,0,1,1.93-1.52,10.63,10.63,0,0,1,3.06-.79c1.22-.16,2.49-.27,3.8-.35v-.07a1.59,1.59,0,0,0-.94-1.59,6.68,6.68,0,0,0-2.77-.44,7.91,7.91,0,0,0-2.35.39c-.83.26-1.43.46-1.79.6h-.41V189.1c.47-.12,1.23-.27,2.29-.43a20.09,20.09,0,0,1,3.19-.26q3.79,0,5.49,1.17a4.16,4.16,0,0,1,1.68,3.67v9.45h-4.41Zm0-2.16v-2.89c-.6,0-1.26.12-2,.21a8.35,8.35,0,0,0-1.59.3,2.13,2.13,0,0,0-1,.61,1.5,1.5,0,0,0-.36,1,2.78,2.78,0,0,0,.08.71,1,1,0,0,0,.37.51,1.8,1.8,0,0,0,.68.37,4.74,4.74,0,0,0,1.24.11,3.69,3.69,0,0,0,1.35-.27A4.38,4.38,0,0,0-137.51,199.07Z" transform="translate(561.44 -117.09)"/><path class="cls-1" d="M-120.12,202.58a13.23,13.23,0,0,1-1.52.29,15.58,15.58,0,0,1-2,.1,6,6,0,0,1-3.86-1.05,4.43,4.43,0,0,1-1.27-3.6v-6.49h-1.83v-3h1.83v-4h4.47v4h4.15v3h-4.15v4.93c0,.49,0,.91,0,1.27a2.52,2.52,0,0,0,.2,1,1.32,1.32,0,0,0,.61.69,2.55,2.55,0,0,0,1.27.25,3.6,3.6,0,0,0,.91-.14,3.23,3.23,0,0,0,.78-.28h.37Z" transform="translate(561.44 -117.09)"/><path class="cls-1" d="M-112.87,186.83h-4.71v-3.38h4.71ZM-113,202.7h-4.47V188.81H-113Z" transform="translate(561.44 -117.09)"/><path class="cls-1" d="M-94.59,195.76a7.24,7.24,0,0,1-2,5.4,7.61,7.61,0,0,1-5.61,2,7.61,7.61,0,0,1-5.61-2,7.2,7.2,0,0,1-2-5.4,7.24,7.24,0,0,1,2-5.42,7.68,7.68,0,0,1,5.6-2,7.61,7.61,0,0,1,5.62,2A7.33,7.33,0,0,1-94.59,195.76Zm-5.48,3.38a3.86,3.86,0,0,0,.65-1.28,8,8,0,0,0,.21-2.07,8,8,0,0,0-.22-2.06,3.69,3.69,0,0,0-.62-1.32,2.14,2.14,0,0,0-1-.72,3.36,3.36,0,0,0-1.2-.21,3.71,3.71,0,0,0-1.15.17,2.4,2.4,0,0,0-1,.7,3.53,3.53,0,0,0-.64,1.32,7.46,7.46,0,0,0-.25,2.12,8.2,8.2,0,0,0,.21,2,3.48,3.48,0,0,0,.62,1.34,2.43,2.43,0,0,0,1,.71,3.48,3.48,0,0,0,1.25.22,3.22,3.22,0,0,0,1.16-.21A2.09,2.09,0,0,0-100.07,199.14Z" transform="translate(561.44 -117.09)"/><path class="cls-1" d="M-77.44,202.7h-4.47v-6.89a15.76,15.76,0,0,0-.09-1.68,3.43,3.43,0,0,0-.3-1.23,1.51,1.51,0,0,0-.72-.67,3.39,3.39,0,0,0-1.33-.21,4.16,4.16,0,0,0-1.23.2,6.46,6.46,0,0,0-1.36.63v9.85H-91.4V188.81h4.46v1.53a11.55,11.55,0,0,1,2.29-1.42,5.75,5.75,0,0,1,2.42-.5,4.66,4.66,0,0,1,3.52,1.32,5.45,5.45,0,0,1,1.27,3.92Z" transform="translate(561.44 -117.09)"/></g></svg>