<svg id="ERRA_logo" xmlns="http://www.w3.org/2000/svg" viewBox="0 0 302.37 92.12"><defs><style>.cls-1{fill:#fff;}</style></defs><g id="ERRA"><g id="A"><polygon class="cls-1" points="289.56 0 262.1 0 206.85 92.12 231.74 92.12 271.07 26.57 274.44 56.79 262.43 56.79 252.53 73.31 276.27 73.31 278.38 92.12 302.37 92.12 289.56 0"/></g><g id="R"><path class="cls-1" d="M-376.33,443.43l-20.26,33.77h-23.74l0-.11,38.67-64.5-3.3,14.25h11.69a34.43,34.43,0,0,0,7.27-.7,18.61,18.61,0,0,0,7.38-3.15,12.62,12.62,0,0,0,5.2-10.71,11.09,11.09,0,0,0-1.12-5.23,7.17,7.17,0,0,0-2.44-2.63c-2.38-1.54-5.87-2.31-10.5-2.31h-7.89l10.21-17h2q11.94,0,20.05,2.87a30.56,30.56,0,0,1,6.06,2.85q9.24,5.73,9.23,17.47,0,11.09-6.75,18.63t-18.32,11.38l21.29,38.91h-26.51Z" transform="translate(561.44 -385.09)"/></g><g id="R-2" data-name="R"><path class="cls-1" d="M-442.14,443.43-462.4,477.2h-23.74l0-.11,38.67-64.5-3.3,14.25H-439a34.43,34.43,0,0,0,7.27-.7A18.61,18.61,0,0,0-424.4,423a12.62,12.62,0,0,0,5.2-10.71,11.09,11.09,0,0,0-1.12-5.23,7.17,7.17,0,0,0-2.44-2.63c-2.38-1.54-5.87-2.31-10.5-2.31h-7.89l10.21-17h2q11.94,0,20.05,2.87a30.56,30.56,0,0,1,6.06,2.85q9.24,5.73,9.23,17.47,0,11.09-6.75,18.63t-18.32,11.38l21.29,38.91h-26.51Z" transform="translate(561.44 -385.09)"/></g><g id="E"><polygon class="cls-1" points="68.47 17.5 58.64 33.9 100.74 33.9 90.25 51.41 48.14 51.41 40.58 64.01 34.23 74.61 90.02 74.61 86.06 92.12 0 92.12 0.03 92 16.86 63.94 38.69 27.52 44.7 17.5 55.2 0 121.06 0 110.57 17.5 68.47 17.5"/></g></g></svg>